<svg xmlns:dc="http://purl.org/dc/elements/1.1/" xmlns:cc="http://creativecommons.org/ns#" xmlns:rdf="http://www.w3.org/1999/02/22-rdf-syntax-ns#" xmlns:svg="http://www.w3.org/2000/svg" xmlns="http://www.w3.org/2000/svg" viewBox="0 0 603.45331 279.78668" height="279.78668" width="603.45331" xml:space="preserve" id="svg2" version="1.1"><metadata id="metadata8"><rdf:RDF><cc:Work rdf:about=""><dc:format>image/svg+xml</dc:format><dc:type rdf:resource="http://purl.org/dc/dcmitype/StillImage"/></cc:Work></rdf:RDF></metadata><defs id="defs6"/><g transform="matrix(1.3333333,0,0,-1.3333333,0,279.78667)" id="g10"><g transform="scale(0.1)" id="g12"><path id="path14" style="fill:#1a3352;fill-opacity:1;fill-rule:nonzero;stroke:none" d="m 89.1328,1773.57 c 0,-22.64 -0.2187,-43.95 0.0547,-65.25 0.3672,-28.31 -4.8516,-25.25 25.4845,-25.25 619.098,-0.05 1238.188,0.06 1857.288,-0.22 48.65,-0.03 83.65,19.63 107.09,62.53 44.65,81.76 90.83,162.69 135.57,244.41 30.53,55.75 75.14,92.25 137.93,104.87 13.38,2.69 27.33,3.55 41.02,3.57 146.33,0.25 292.67,0.15 439,0.15 3.58,0 7.16,0 12.58,0 0,-8.73 0,-16.54 0,-24.36 0,-17.05 -0.85,-34.17 0.29,-51.15 0.79,-11.77 -3.82,-13.72 -14.24,-13.67 -85.33,0.34 -170.65,0.18 -255.99,0.18 -2.55,0 -5.08,0.01 -7.62,0 -17.93,-0.02 -17.95,-0.02 -17.95,-17.68 0,-370.17 0,-740.34 0,-1110.501 0,-3.988 -0.25,-8 0.02,-11.98 0.45,-6.918 -2.41,-9.77 -9.49,-9.688 -23.6,0.239 -47.2,0.207 -70.81,0.02 -6.5,-0.063 -9.38,2.371 -8.82,8.98 0.32,3.598 0.04,7.25 0.04,10.879 0,370.89 0,741.79 0,1112.68 0,17.26 -0.03,17.7 -17.18,17.19 -25.68,-0.75 -51.69,0.09 -76.91,-3.91 -30.58,-4.86 -53.15,-23.89 -68.28,-50.95 -47.06,-84.17 -94.49,-168.13 -140.74,-252.75 -33.12,-60.6 -82.72,-96.63 -150.98,-106.78 -8.55,-1.27 -17.39,-0.83 -26.09,-0.83 -623.82,-0.03 -1247.634,-0.02 -1871.451,-0.05 -21.8826,0 -19.7888,2.08 -19.7967,-19.96 -0.039,-152.05 0.1368,-304.11 -0.1757,-456.17 -0.0469,-24.93 8.0117,-45.7 24.5824,-64.16 40.961,-45.64 81.406,-91.751 122.035,-137.689 1.66,-1.883 3.125,-3.929 5.586,-7.062 -22.278,-19.668 -44.367,-39.188 -67.035,-59.207 -22.438,25.316 -44.075,49.707 -65.676,74.129 -21.8792,24.73 -43.7502,49.468 -65.5706,74.25 C 14.4258,1030.47 -0.0351563,1067.92 -0.00390625,1111.27 0.1875,1326.83 0.0859375,1542.4 0.0898438,1757.96 c 0,15.61 0.0195312,15.61 16.1132562,15.61 23.586,0.01 47.1641,0 72.9297,0"/><path id="path16" style="fill:#1a3352;fill-opacity:1;fill-rule:nonzero;stroke:none" d="m 3873.32,211.559 c 0,30.57 0,59.461 0,90.031 5.04,0 9.6,0 14.17,0 153.22,0 306.45,-0.012 459.68,0.012 52.48,0 89.63,37.199 89.63,89.789 0,215.199 0,430.398 0,645.589 0,39.18 -21.1,68.99 -57.87,81.88 -133.93,46.95 -267.89,93.86 -401.8,140.87 -35.48,12.45 -59.44,36.67 -71.92,72.04 -27.68,78.5 -54.36,157.36 -83.03,235.5 -32.26,87.93 -96.15,139.03 -188.2,154.98 -11.35,1.98 -23.1,2.34 -34.68,2.34 -238.55,0.13 -477.1,0.1 -715.66,0.1 -28.43,0 -38.49,-10.12 -38.49,-38.67 0,-270.37 0,-540.72 -0.01,-811.079 0,-15.332 -0.01,-15.339 -15.32,-15.351 -20.33,-0.02 -40.69,0.519 -60.99,-0.219 -10.74,-0.402 -14.07,2.438 -14.05,13.84 0.38,228.629 0.29,457.249 0.29,685.879 0,44.27 0,88.54 0,132.82 0.01,60.07 37.8,107.2 96.61,119.9 7.7,1.67 15.85,1.8 23.79,1.81 243.64,0.09 487.27,0.29 730.91,-0.02 134.64,-0.18 256.04,-87.78 300.27,-215.12 27.2,-78.28 55.04,-156.34 82.35,-234.59 3.82,-10.94 10.97,-17.26 21.62,-20.98 132.6,-46.38 265.19,-92.77 397.7,-139.41 64.84,-22.83 103.06,-68.87 116.06,-135.97 1.64,-8.45 1.41,-17.34 1.41,-26.04 0.08,-218.459 0.1,-436.92 0.04,-655.388 -0.03,-89.692 -66.55,-163.352 -155.99,-172.782 -10.07,-1.058 -20.22,-1.679 -30.35,-1.691 -150.68,-0.098 -301.37,-0.07 -452.05,-0.07 -4.31,0 -8.6,0 -14.12,0"/><path id="path18" style="fill:#1a3352;fill-opacity:1;fill-rule:nonzero;stroke:none" d="m 3410.18,652.09 c -9.72,-0.891 -19.48,-1.57 -29.17,-2.719 -69.19,-8.191 -125.47,-40.031 -166.53,-95.883 -56.22,-76.508 -66.6,-162.117 -38.12,-250.879 33.71,-105.019 106.06,-168.507 217.69,-178.398 78.45,-6.949 145.78,22.039 197.29,81.828 61.3,71.191 78.86,154.711 61.23,245.973 C 3630.1,568.359 3528.78,651.34 3410.18,652.09 Z M 3797.54,391.738 C 3798.55,176.719 3635.13,-0.28125 3409.21,0.28125 3191.37,0.828125 3020.46,170.238 3023.29,398.77 c 2.66,213.859 173.26,381.761 400,375.511 210.71,-5.801 375.77,-169.562 374.25,-382.543"/><path id="path20" style="fill:#ee5b26;fill-opacity:1;fill-rule:nonzero;stroke:none" d="m 78.2891,100.988 c 25.4449,35.223 49.4299,68.422 73.9139,102.321 3.035,-2.34 5.563,-4.18 7.973,-6.18 44.715,-37.008 94.633,-63.117 152.808,-70.731 30.207,-3.949 59.844,-1.777 88.153,11.774 49.906,23.898 69.465,95.078 17.461,137.969 -28.965,23.89 -63.047,38.3 -96.875,53.211 -47.418,20.886 -95.719,40.007 -138.649,69.777 -45.668,31.672 -79.148,72.269 -85.9998,129 -10.8164,89.551 24.0468,158.711 99.7848,206.621 56.196,35.551 118.832,43.988 183.996,38.391 55.465,-4.77 107.254,-20.871 154.172,-51.231 10.02,-6.48 19.493,-13.91 28.536,-21.711 2.367,-2.039 4.144,-8.058 2.867,-10.539 -17.938,-34.742 -36.453,-69.191 -54.387,-102.879 -21.039,12.699 -40.797,26.199 -61.922,37.028 -38.43,19.703 -79.445,29.793 -122.926,25.05 -34.156,-3.718 -63.871,-16.75 -83.398,-46.718 -20.258,-31.09 -17.379,-68.493 10.254,-92.95 17.644,-15.613 38.332,-28.82 59.597,-39.089 C 358.965,448.238 406.02,430 451.453,408.371 491.781,389.172 527.969,363.75 553.578,325.91 598.832,259.051 594.328,159.07 542.957,91.0586 505.809,41.8711 455.086,14.1719 395.395,5.14063 280.043,-12.3281 176.926,16.4883 88.0156,93.1094 c -3.0078,2.5898 -6.164,5 -9.7265,7.8786"/><path id="path22" style="fill:#ee5b26;fill-opacity:1;fill-rule:nonzero;stroke:none" d="M 950.473,450.41 C 914.988,449.309 877.359,436.25 847.066,406.148 798.641,358.02 786.496,299.18 802.141,234.879 c 14.367,-59.059 52.07,-99.168 111.129,-115.508 59.46,-16.461 113.33,-3.25 156.89,41.059 43.56,44.3 54.36,99.058 43.78,158.871 -13.38,75.57 -79.99,131.121 -163.467,131.109 z m 0.953,113.481 C 1054.28,560.988 1137.26,527.961 1197.8,449.27 1243.07,390.422 1258.2,322.852 1251.04,249.5 1238.47,120.879 1138.63,23.2188 1009.08,4.21094 920.082,-8.85156 837.727,7.87891 765.66,63.3086 704.855,110.059 671.133,172.762 662.699,249.051 c -17.832,161.289 92.285,287.488 241.344,309.91 17.508,2.641 35.258,3.699 47.383,4.93"/><path id="path24" style="fill:#1a3352;fill-opacity:1;fill-rule:nonzero;stroke:none" d="m 3421.3,1124.75 c 83.84,0 167.69,0.68 251.52,-0.46 22.19,-0.31 39.78,17.57 30.41,42.37 -32.6,86.32 -63.47,173.29 -95.03,259.98 -6.37,17.51 -14.94,23.64 -33.31,23.64 -135.39,0.04 -270.77,0.05 -406.15,0 -22.29,-0.01 -33.53,-11.2 -33.55,-33.4 -0.06,-86.34 -0.06,-172.68 0,-259.01 0.01,-22.47 10.87,-33.11 33.49,-33.12 84.21,-0.02 168.41,0 252.62,0 z m -1.14,-90.04 c -85.32,0 -170.63,-0.04 -255.95,0.02 -53.33,0.04 -99.02,33.79 -113.49,84.75 -3.2,11.31 -4.36,23.54 -4.41,35.36 -0.35,88.54 -0.31,177.07 -0.15,265.61 0.1,59.12 36.46,104.33 93.96,116.7 8.4,1.81 17.27,2.06 25.92,2.07 136.88,0.12 273.75,-0.5 410.62,0.37 55.64,0.35 99.24,-34.57 115.7,-80.78 31.46,-88.27 64.06,-176.13 95.98,-264.24 24.95,-68.88 -12.69,-139.67 -83.18,-156.42 -9.08,-2.15 -18.62,-3.26 -27.95,-3.29 -85.69,-0.25 -171.37,-0.15 -257.05,-0.15"/><path id="path26" style="fill:#1a3352;fill-opacity:1;fill-rule:nonzero;stroke:none" d="m 1980.11,760.73 c 143.01,0 285.21,0 428.34,0 0,-37.492 0,-74.652 0,-113.242 -4.18,-0.226 -8.72,-0.699 -13.25,-0.699 -88.94,-0.051 -177.89,-0.027 -266.84,-0.051 -14.38,0 -14.47,-0.047 -14.48,-14.527 -0.03,-62.039 -0.03,-124.09 0.03,-186.141 0,-4.261 0.59,-8.519 0.99,-13.929 5.08,0 9.35,0 13.62,0 73.7,0 147.4,-0.211 221.1,0.238 10.19,0.062 13,-2.949 12.83,-12.809 -0.54,-30.461 -0.51,-60.949 -0.02,-91.429 0.16,-9.379 -2.47,-12.332 -12.23,-12.282 -74.42,0.411 -148.85,-0.007 -223.27,0.493 -10.92,0.07 -13.28,-3.543 -13.25,-13.622 0.32,-91.429 0.19,-182.871 0.18,-274.3081 0,-15.1328 -0.03,-15.1328 -15.54,-15.1406 -35.21,0 -70.43,0 -105.64,0 -3.92,0 -7.84,0 -12.57,0 0,249.4097 0,497.7387 0,747.4487"/><path id="path28" style="fill:#1a3352;fill-opacity:1;fill-rule:nonzero;stroke:none" d="m 2518.4,760.5 c 3.18,0.309 5.65,0.762 8.13,0.762 38.48,0.047 76.96,-0.121 115.45,0.168 7.52,0.05 10.63,-2.379 10.13,-9.969 -0.41,-6.133 -0.07,-12.32 -0.07,-18.492 0,-195.578 0,-391.16 0,-586.739 0,-18.019 0.02,-18.039 17.59,-18.039 97.29,-0.011 194.59,0 291.88,-0.011 15.12,0 15.16,-0.051 15.17,-14.809 0.03,-29.7499 -0.15,-59.5116 0.11,-89.2616 0.05,-7.418 -1.43,-11.0078 -10.15,-11 -147.04,0.25 -294.07,0.1797 -441.1,0.2109 -2.12,0 -4.25,0.3789 -7.14,0.6485 0,248.6792 0,497.0192 0,746.5312"/><path id="path30" style="fill:#ee5b26;fill-opacity:1;fill-rule:nonzero;stroke:none" d="m 1636.97,760.93 c 44.75,0 87.78,0 132.07,0 0,-5.321 0,-9.918 0,-14.539 0,-182.879 -0.1,-365.762 0.22,-548.641 0.02,-12.891 1.73,-26.148 5.11,-38.578 6.29,-23.152 22.54,-33.391 49.6,-33.723 20.33,-0.238 20.33,-0.238 20.33,-20.91 -0.01,-27.9374 -0.15,-55.8906 0.09,-83.8202 0.06,-6.879 -1.75,-11.14067 -9.28,-11.67974 -36.35,-2.58984 -72.62,-3.1875 -107.69,8.66014 -51.74,17.4922 -76.82,56.8711 -85.73,108.1598 -3.09,17.75 -4.49,36.02 -4.53,54.051 -0.31,188.692 -0.19,377.371 -0.19,566.059 0,4.652 0,9.301 0,14.961"/><path id="path32" style="fill:#ee5b26;fill-opacity:1;fill-rule:nonzero;stroke:none" d="m 1097.73,1143.03 c -21.13,21.11 -41.84,41.81 -62.6,62.54 198.35,213.73 572.9,235.31 800.13,-0.04 -20.94,-20.95 -41.86,-41.89 -63,-63.03 -93.14,92.3 -205.68,141.71 -337.89,141.62 -131.77,-0.08 -243.98,-49.45 -336.64,-141.09"/><path id="path34" style="fill:#ee5b26;fill-opacity:1;fill-rule:nonzero;stroke:none" d="m 1362.86,549.75 c 44.35,0 87.4,0 131.21,0 0,-178.879 0,-357.078 0,-536 -43.82,0 -87.13,0 -131.21,0 0,178.668 0,356.871 0,536"/><path id="path36" style="fill:#ee5b26;fill-opacity:1;fill-rule:nonzero;stroke:none" d="m 1715.84,1085.04 c -20.78,-20.68 -41.57,-41.34 -63.06,-62.72 -59.79,59.95 -132.38,92.49 -218.12,92.45 -85.45,-0.04 -157.79,-32.42 -217.85,-92.41 -21.16,20.84 -41.99,41.36 -62.81,61.86 133.42,150.43 402.92,169.51 561.84,0.82"/><path id="path38" style="fill:#ee5b26;fill-opacity:1;fill-rule:nonzero;stroke:none" d="m 1336.47,902.238 c -20.83,21.852 -41.02,43.024 -61.33,64.321 73.96,85.461 229,97.581 319.92,0.132 -20.67,-20.652 -41.32,-41.269 -62.9,-62.832 -25.68,25.161 -57.78,41.391 -96.86,41.422 -38.78,0.028 -71.04,-14.89 -98.83,-43.043"/><path id="path40" style="fill:#ee5b26;fill-opacity:1;fill-rule:nonzero;stroke:none" d="m 1493.85,760.898 c 0,-38.847 0,-76.828 0,-115.738 -43.55,0 -86.84,0 -130.95,0 0,38.559 0,76.77 0,115.738 43.62,0 86.67,0 130.95,0"/></g></g></svg>